<?xml version="1.0" encoding="UTF-8"?>
<svg id="Ref" xmlns="http://www.w3.org/2000/svg" viewBox="0 0 1200 480">
  <path d="M256.80258,221.83829c4.09229-5.45557,8.88477-9.67383,14.37695-12.65381,5.49268-2.97852,11.46924-4.46924,17.93115-4.46924,10.12305,0,18.30762,2.44141,24.55371,7.32275,6.24609,4.8833,10.80469,11.75732,13.67676,20.62305,2.87061,8.86816,4.30762,19.22314,4.30762,31.06934,0,11.41553-1.70605,21.59229-5.11523,30.53125-3.41064,8.93848-8.45361,15.95703-15.13086,21.05371-6.67676,5.09863-14.89844,7.64648-24.66162,7.64648-13.13818,0-23.44141-4.73926-30.90771-14.21582l-1.29199,11.73828h-15.83105V161.42276l18.09229-2.26172v62.67725Zm25.63086,86.47705c9.47705,0,16.76318-3.66113,21.86182-10.98438,5.09668-7.32324,7.646-18.55908,7.646-33.70801,0-29.57861-8.90332-44.36963-26.70752-44.36963-6.31885,0-11.8833,1.88477-16.69238,5.65381-4.81104,3.76953-8.72314,7.95264-11.73877,12.54639v56.21533c2.94336,4.52344,6.65869,8.0957,11.14648,10.71582,4.48584,2.62109,9.31543,3.93066,14.48438,3.93066Z"/>
  <path d="M363.64356,270.1918c.50146,13.13867,3.96631,22.70654,10.39258,28.70068,6.42432,5.99512,14.0166,8.99219,22.77686,8.99219,5.81543,0,11.05518-.86133,15.72314-2.58496,4.66602-1.72266,9.51221-4.27051,14.53857-7.64551l8.50732,11.95312c-5.24121,4.16504-11.27197,7.43066-18.09229,9.7998-6.82129,2.37012-13.78467,3.55469-20.89209,3.55469-11.05713,0-20.44482-2.47754-28.16162-7.43066-7.71826-4.9541-13.60645-11.86328-17.66162-20.73145-4.05664-8.86621-6.08447-19.15088-6.08447-30.854,0-11.48584,2.02783-21.68115,6.08447-30.58447,4.05518-8.90137,9.80029-15.90137,17.23096-21,7.43066-5.09668,16.17041-7.646,26.22314-7.646,14.28613,0,25.53955,4.95361,33.76123,14.86133,8.22021,9.90771,12.33105,23.47705,12.33105,40.70752,0,1.93848-.0542,3.76953-.16162,5.49268-.10791,1.72314-.19873,3.19531-.26904,4.41504h-76.24658Zm30.80029-50.61523c-8.3999,0-15.43701,2.97998-21.10791,8.93848-5.67236,5.95996-8.86768,15.18457-9.58447,27.67676h59.12305c-.21533-12.13184-2.87256-21.26904-7.96924-27.40771-5.09863-6.13818-11.91846-9.20752-20.46143-9.20752Z"/>
  <path d="M469.01845,320.48428h-20.67725l41.89258-59.87695-36.72314-53.52295h21.43066l26.27686,42.21533,26.6001-42.21533h20.67725l-36.61572,52.76904,41.78467,60.63086h-22.18457l-31.01514-48.67676-31.44629,48.67676Z"/>
  <path d="M588.40142,166.32859v133.36427c0,4.84434,1.50525,8.27634,4.51786,10.29348,3.01135,2.01883,6.90793,3.02739,11.69061,3.02739,2.91801,0,5.72874-.31,8.43008-.9317,2.70134-.62001,5.38663-1.45795,8.05757-2.51466l4.19181,11.45747c-2.67093,1.30421-5.97792,2.46821-9.92055,3.49282-3.94431,1.02462-8.39967,1.53735-13.36733,1.53735-8.69489,0-15.7422-2.40654-21.14488-7.21963-5.40311-4.8114-8.10445-11.47183-8.10445-19.98047v-120.13716h-45.87434v-12.38917h61.52362Z"/>
  <path d="M696.66149,207.03727v99.07666h31.98535v14.32324h-85.07715v-14.32324h35v-84.75391h-33.92285v-14.32275h52.01465Zm-14.43066-53.09229c4.02051,0,7.23242,1.22168,9.63867,3.66162,2.4043,2.44141,3.60742,5.42139,3.60742,8.93848,0,3.66113-1.20312,6.73047-3.60742,9.20752-2.40625,2.47705-5.61816,3.71533-9.63867,3.71533-3.80566,0-6.92871-1.23828-9.36914-3.71533-2.44141-2.47705-3.66113-5.54639-3.66113-9.20752,0-3.51709,1.21973-6.49707,3.66113-8.93848,2.44043-2.43994,5.56348-3.66162,9.36914-3.66162Z"/>
  <path d="M741.41538,313.44816c0-1.78588,.61138-3.30317,1.83513-4.55122,1.22309-1.24772,2.7527-1.87174,4.58783-1.87174,1.8591,0,3.40668,.62403,4.64275,1.87174,1.23507,1.24805,1.85344,2.76535,1.85344,4.55122,0,1.81084-.61837,3.34611-1.85344,4.60581-1.23607,1.26003-2.78365,1.89038-4.64275,1.89038-1.83513,0-3.36474-.63035-4.58783-1.89038-1.22376-1.2597-1.83513-2.79497-1.83513-4.60581Z"/>
  <path d="M812.60937,307.2443c5.6709,0,10.9668-.91504,15.88477-2.74609,4.91699-1.83008,9.45898-4.2168,13.62305-7.16113l8.83105,11.8457c-4.9541,4.2373-10.91406,7.57617-17.87695,10.01562-6.96484,2.44043-13.78418,3.66211-20.46191,3.66211-11.27148,0-20.875-2.42383-28.80762-7.26953-7.93359-4.84668-13.98242-11.66602-18.14551-20.46191-4.16504-8.79297-6.24609-19.11523-6.24609-30.96143,0-11.34326,2.08105-21.50146,6.24609-30.47705,4.16309-8.97363,10.23047-16.06299,18.2002-21.26904,7.96875-5.20459,17.62402-7.80762,28.96875-7.80762,14.43066,0,27.06641,4.37988,37.9082,13.13818l-8.83105,12.06152c-9.83691-6.74756-19.60059-10.12305-29.29297-10.12305-9.76465,0-17.80566,3.68018-24.12305,11.03857-6.31836,7.35986-9.47656,18.50635-9.47656,33.43848,0,15.14941,3.1582,26.11572,9.47656,32.8999,6.31738,6.78516,14.3584,10.17676,24.12305,10.17676Z"/>
  <path d="M912.72037,204.61393c16.00879,0,28.10742,5.34912,36.29199,16.0459,8.18457,10.69873,12.27734,25.02148,12.27734,42.96924,0,11.56006-1.86816,21.79102-5.60059,30.69238-3.7334,8.90332-9.22559,15.88477-16.47656,20.94629-7.25293,5.06152-16.1543,7.59277-26.70801,7.59277-16.01074,0-28.14453-5.38477-36.39941-16.1543-8.25781-10.76953-12.38477-25.05566-12.38477-42.86182,0-11.63086,1.86621-21.91504,5.59961-30.85352,3.73242-8.93848,9.24316-15.90186,16.53125-20.89258,7.28613-4.98926,16.24219-7.48438,26.86914-7.48438Zm0,14.75342c-9.76465,0-17.1416,3.62646-22.13086,10.87695-4.99121,7.25244-7.48438,18.45264-7.48438,33.6001,0,15.00635,2.45801,26.11572,7.37695,33.33154,4.91602,7.21484,12.25781,10.82227,22.02246,10.82227,9.7627,0,17.10449-3.62402,22.02344-10.87695,4.91699-7.25,7.37695-18.41504,7.37695-33.49219s-2.44141-26.22314-7.32324-33.43848c-4.88281-7.21533-12.16895-10.82324-21.86133-10.82324Z"/>
</svg>